grf
version=1
nRows=19
nColumns=37
inDegrees=no
endheader
time	ground_force_1_vx	ground_force_1_vy	ground_force_1_vz	ground_force_1_px	ground_force_1_py	ground_force_1_pz	ground_moment_1_mx	ground_moment_1_my	ground_moment_1_mz	ground_force_2_vx	ground_force_2_vy	ground_force_2_vz	ground_force_2_px	ground_force_2_py	ground_force_2_pz	ground_moment_2_mx	ground_moment_2_my	ground_moment_2_mz	ground_force_3_vx	ground_force_3_vy	ground_force_3_vz	ground_force_3_px	ground_force_3_py	ground_force_3_pz	ground_moment_3_mx	ground_moment_3_my	ground_moment_3_mz	ground_force_4_vx	ground_force_4_vy	ground_force_4_vz	ground_force_4_px	ground_force_4_py	ground_force_4_pz	ground_moment_4_mx	ground_moment_4_my	ground_moment_4_mz
      4.95000000	      0.00000000	     -0.00000000	      0.00000000	      0.00000000	      0.00000000	      0.00000000	      0.00000000	      0.00000000	      0.00000000	      5.21332264	     50.35319901	   -354.68127441	   -349.34171408	  -1168.84201196	      0.00000000	      0.00000000	      0.00000000	   2342.50025641	      9.84166109	    -69.58674708	   -568.33276367	   -351.46962642	   -725.68658048	      0.00000000	      0.00000000	     -0.00000000	  -3515.21474078	      0.00000000	     -0.00000000	      0.00000000	      0.00000000	      0.00000000	      0.00000000	      0.00000000	      0.00000000	      0.00000000
      4.96000000	      0.00000000	     -0.00000000	      0.00000000	      0.00000000	      0.00000000	      0.00000000	      0.00000000	      0.00000000	      0.00000000	      4.09164858	     49.15592194	   -337.02499390	   -346.05007536	  -1169.61077299	      0.00000000	      0.00000000	      0.00000000	   2134.62732138	      8.72784593	    -67.95194321	   -562.74658203	   -351.80216640	   -725.74128596	      0.00000000	      0.00000000	      0.00000000	  -3738.95290671	      0.00000000	     -0.00000000	      0.00000000	      0.00000000	      0.00000000	      0.00000000	      0.00000000	      0.00000000	      0.00000000
      4.97000000	      0.00000000	     -0.00000000	      0.00000000	      0.00000000	      0.00000000	      0.00000000	      0.00000000	      0.00000000	      0.00000000	      3.50756240	     45.48472595	   -321.26416016	   -344.62193878	  -1168.50359374	      0.00000000	      0.00000000	      0.00000000	   2460.83065556	      7.65304703	    -66.07122870	   -552.68579102	   -351.77144038	   -725.36426998	      0.00000000	      0.00000000	      0.00000000	  -3835.03466027	      0.00000000	     -0.00000000	      0.00000000	      0.00000000	      0.00000000	      0.00000000	      0.00000000	      0.00000000	      0.00000000
      4.98000000	      0.00000000	     -0.00000000	      0.00000000	      0.00000000	      0.00000000	      0.00000000	      0.00000000	      0.00000000	      0.00000000	      2.37626576	     40.30853271	   -307.88732910	   -342.76241221	  -1169.10235377	      0.00000000	      0.00000000	      0.00000000	   2703.80852769	      6.47588179	    -62.99464473	   -536.21276855	   -351.34291359	   -726.26798196	      0.00000000	      0.00000000	     -0.00000000	  -3985.84196523	      0.00000000	     -0.00000000	      0.00000000	      0.00000000	      0.00000000	      0.00000000	      0.00000000	      0.00000000	      0.00000000
      4.99000000	      0.00000000	     -0.00000000	      0.00000000	      0.00000000	      0.00000000	      0.00000000	      0.00000000	      0.00000000	      0.00000000	      1.25967741	     36.08378601	   -293.62664795	   -339.68629280	  -1168.58301348	      0.00000000	      0.00000000	      0.00000000	   3116.68190163	      5.47683189	    -60.29211474	   -518.69372559	   -350.23374898	   -724.32394124	      0.00000000	      0.00000000	     -0.00000000	  -3904.74597656	      0.00000000	     -0.00000000	      0.00000000	      0.00000000	      0.00000000	      0.00000000	      0.00000000	      0.00000000	      0.00000000
      5.00000000	      0.00000000	     -0.00000000	      0.00000000	      0.00000000	      0.00000000	      0.00000000	      0.00000000	      0.00000000	      0.00000000	      0.11526524	     31.68835640	   -277.18478394	   -337.97695400	  -1166.30412315	      0.00000000	      0.00000000	      0.00000000	   3223.42879144	      5.20766138	    -57.36765335	   -498.34274292	   -349.56874599	   -724.22886865	      0.00000000	      0.00000000	     -0.00000000	  -3685.84072033	      0.00000000	     -0.00000000	      0.00000000	      0.00000000	      0.00000000	      0.00000000	      0.00000000	      0.00000000	      0.00000000
      5.01000000	      0.00000000	     -0.00000000	      0.00000000	      0.00000000	      0.00000000	      0.00000000	      0.00000000	      0.00000000	      0.00000000	     -1.07052612	     28.89166069	   -265.87103271	   -334.71205049	  -1167.64089351	      0.00000000	      0.00000000	      0.00000000	   3227.19987781	      6.25409504	    -54.99367959	   -480.56665039	   -348.41453298	   -723.88708280	      0.00000000	      0.00000000	     -0.00000000	  -3758.56132054	      0.00000000	     -0.00000000	      0.00000000	      0.00000000	      0.00000000	      0.00000000	      0.00000000	      0.00000000	      0.00000000
      5.02000000	      0.00000000	     -0.00000000	      0.00000000	      0.00000000	      0.00000000	      0.00000000	      0.00000000	      0.00000000	      0.00000000	     -2.23026276	     26.04663849	   -253.31147766	   -333.44366060	  -1167.37297899	      0.00000000	      0.00000000	      0.00000000	   3267.98958381	      6.89909267	    -54.57267440	   -466.85577393	   -347.52454211	   -724.05599375	      0.00000000	      0.00000000	     -0.00000000	  -3738.02722981	      0.00000000	     -0.00000000	      0.00000000	      0.00000000	      0.00000000	      0.00000000	      0.00000000	      0.00000000	      0.00000000
      5.03000000	      0.00000000	     -0.00000000	      0.00000000	      0.00000000	      0.00000000	      0.00000000	      0.00000000	      0.00000000	      0.00000000	     -4.31143475	     24.75408936	   -244.90521240	   -329.23293177	  -1169.38118472	      0.00000000	      0.00000000	      0.00000000	   3205.92847736	      7.34792321	    -55.31850498	   -460.27697754	   -347.55755928	   -722.70742908	      0.00000000	      0.00000000	     -0.00000000	  -3560.74459436	      0.00000000	     -0.00000000	      0.00000000	      0.00000000	      0.00000000	      0.00000000	      0.00000000	      0.00000000	      0.00000000
      5.04000000	      0.00000000	     -0.00000000	      0.00000000	      0.00000000	      0.00000000	      0.00000000	      0.00000000	      0.00000000	      0.00000000	     -5.57134819	     24.03501320	   -235.92419434	   -326.74063055	  -1169.28654037	      0.00000000	      0.00000000	      0.00000000	   3163.08514910	      8.30893595	    -56.47721554	   -459.13079834	   -347.91945159	   -721.73096036	      0.00000000	      0.00000000	     -0.00000000	  -3522.38000223	      0.00000000	     -0.00000000	      0.00000000	      0.00000000	      0.00000000	      0.00000000	      0.00000000	      0.00000000	      0.00000000
      5.05000000	      0.00000000	     -0.00000000	      0.00000000	      0.00000000	      0.00000000	      0.00000000	      0.00000000	      0.00000000	      0.00000000	     -6.88905144	     22.88660049	   -225.68206787	   -324.00094116	  -1167.79128402	      0.00000000	      0.00000000	      0.00000000	   3053.61539061	      9.09286947	    -57.87029346	   -461.51989746	   -349.94984835	   -722.56020729	      0.00000000	      0.00000000	     -0.00000000	  -3508.36447422	      0.00000000	     -0.00000000	      0.00000000	      0.00000000	      0.00000000	      0.00000000	      0.00000000	      0.00000000	      0.00000000
      5.06000000	      0.00000000	     -0.00000000	      0.00000000	      0.00000000	      0.00000000	      0.00000000	      0.00000000	      0.00000000	      0.00000000	     -7.92990017	     22.21381760	   -217.71733093	   -323.25027265	  -1167.64411494	      0.00000000	      0.00000000	      0.00000000	   2887.17974076	      9.49204879	    -59.39088141	   -470.49853516	   -351.31445205	   -723.25793647	      0.00000000	      0.00000000	     -0.00000000	  -3507.41139594	      0.00000000	     -0.00000000	      0.00000000	      0.00000000	      0.00000000	      0.00000000	      0.00000000	      0.00000000	      0.00000000
      5.07000000	      0.00000000	     -0.00000000	      0.00000000	      0.00000000	      0.00000000	      0.00000000	      0.00000000	      0.00000000	      0.00000000	     -8.60875034	     20.36636162	   -210.18057251	   -321.17525606	  -1169.84648631	      0.00000000	      0.00000000	      0.00000000	   2859.05369168	      8.79671712	    -60.53860551	   -485.92001343	   -353.23994213	   -722.99374192	      0.00000000	      0.00000000	     -0.00000000	  -3276.95710015	      0.00000000	     -0.00000000	      0.00000000	      0.00000000	      0.00000000	      0.00000000	      0.00000000	      0.00000000	      0.00000000
      5.08000000	      0.00000000	     -0.00000000	      0.00000000	      0.00000000	      0.00000000	      0.00000000	      0.00000000	      0.00000000	      0.00000000	     -9.36053753	     18.58997726	   -203.00262451	   -320.73546352	  -1169.07091352	      0.00000000	      0.00000000	      0.00000000	   2875.26970694	      8.09160350	    -62.96394419	   -500.98138428	   -355.48062451	   -724.42218041	      0.00000000	      0.00000000	     -0.00000000	  -3466.40086490	      0.00000000	     -0.00000000	      0.00000000	      0.00000000	      0.00000000	      0.00000000	      0.00000000	      0.00000000	      0.00000000
      5.09000000	      0.00000000	     -0.00000000	      0.00000000	      0.00000000	      0.00000000	      0.00000000	      0.00000000	      0.00000000	      0.00000000	     -9.11564636	     16.78965187	   -197.09323120	   -321.96017404	  -1168.24523799	      0.00000000	      0.00000000	      0.00000000	   2914.90187225	      6.82601218	    -64.89090788	   -517.91101074	   -356.12639364	   -724.18561203	      0.00000000	      0.00000000	     -0.00000000	  -3393.36665523	      0.00000000	     -0.00000000	      0.00000000	      0.00000000	      0.00000000	      0.00000000	      0.00000000	      0.00000000	      0.00000000
      5.10000000	      0.00000000	     -0.00000000	      0.00000000	      0.00000000	      0.00000000	      0.00000000	      0.00000000	      0.00000000	      0.00000000	     -8.86936760	     15.34917545	   -198.02252197	   -319.80211817	  -1170.42333762	      0.00000000	      0.00000000	      0.00000000	   3178.73259467	      5.82709878	    -66.18985036	   -530.54370117	   -357.75371587	   -724.95693356	      0.00000000	      0.00000000	     -0.00000000	  -3506.31690789	      0.00000000	     -0.00000000	      0.00000000	      0.00000000	      0.00000000	      0.00000000	      0.00000000	      0.00000000	      0.00000000
      5.11000000	      0.00000000	     -0.00000000	      0.00000000	      0.00000000	      0.00000000	      0.00000000	      0.00000000	      0.00000000	      0.00000000	     -9.63483143	     13.90897560	   -198.61473083	   -322.18142430	  -1168.31988969	      0.00000000	      0.00000000	      0.00000000	   3104.77891891	      5.05654033	    -67.30119368	   -545.09716797	   -358.60186806	   -724.88601989	      0.00000000	      0.00000000	     -0.00000000	  -3562.58658935	      0.00000000	     -0.00000000	      0.00000000	      0.00000000	      0.00000000	      0.00000000	      0.00000000	      0.00000000	      0.00000000
      5.12000000	      0.00000000	     -0.00000000	      0.00000000	      0.00000000	      0.00000000	      0.00000000	      0.00000000	      0.00000000	      0.00000000	    -10.15175343	     12.82566357	   -199.08512878	   -324.55398861	  -1165.45955318	      0.00000000	      0.00000000	      0.00000000	   3266.23093598	      4.93175294	    -67.91040082	   -556.72503662	   -359.86041318	   -724.83483681	      0.00000000	      0.00000000	     -0.00000000	  -3642.40848138	      0.00000000	     -0.00000000	      0.00000000	      0.00000000	      0.00000000	      0.00000000	      0.00000000	      0.00000000	      0.00000000
      5.13000000	      0.00000000	     -0.00000000	      0.00000000	      0.00000000	      0.00000000	      0.00000000	      0.00000000	      0.00000000	      0.00000000	     -9.95145607	     11.51536655	   -201.34471130	   -325.42598300	  -1166.47979220	      0.00000000	      0.00000000	      0.00000000	   3306.43686219	      5.54880113	    -68.84680224	   -565.59106445	   -361.02797426	   -725.85693187	      0.00000000	      0.00000000	     -0.00000000	  -3780.53798927	      0.00000000	     -0.00000000	      0.00000000	      0.00000000	      0.00000000	      0.00000000	      0.00000000	      0.00000000	      0.00000000
